<svg width="882" height="230" viewBox="0 0 882 230" fill="none" xmlns="http://www.w3.org/2000/svg">
<path d="M828.366 57.3571C863.851 57.3571 881.999 83.0904 881.999 118.575L815.363 136.995C819.427 142.954 826.469 145.392 834.325 145.392C849.765 145.392 868.455 136.995 877.124 130.494L880.374 171.667C863.309 181.419 847.598 187.378 827.824 187.378C792.339 187.378 764.438 157.853 764.438 122.368C764.438 86.8827 792.61 57.3571 828.366 57.3571ZM842.993 115.325C842.993 105.032 836.221 99.8848 828.366 99.8848C818.614 99.8848 811.571 110.178 811.571 122.368C811.571 122.909 811.571 123.451 811.571 123.993L842.993 115.325Z" fill="white"/>
<path d="M623.76 229.364V57.8988H674.414L672.518 79.0273H674.414C680.644 64.129 692.834 57.3571 705.565 57.3571C731.569 57.3571 756.219 82.0069 756.219 122.368C756.219 162.728 731.569 187.378 705.565 187.378C692.834 187.378 680.644 180.877 674.414 165.979H672.518L674.414 229.364H623.76ZM709.086 122.368C709.086 110.178 701.231 99.8848 691.75 99.8848C682.269 99.8848 674.414 110.178 674.414 122.368C674.414 134.828 682.269 144.851 691.75 144.851C701.231 144.851 709.086 134.828 709.086 122.368Z" fill="white"/>
<path d="M495.155 148.372C495.155 128.327 515.471 108.011 562.062 108.011C556.103 101.239 547.706 98.5304 539.308 98.5304C525.494 98.5304 510.866 105.032 503.011 112.345L500.031 72.5262C517.096 62.7746 529.828 57.3571 549.331 57.3571C584.816 57.3571 612.174 87.1536 612.174 122.368V186.837H565.854L567.75 165.979H565.854C559.624 180.877 548.247 187.378 534.703 187.378C515.2 187.378 495.155 171.667 495.155 148.372ZM547.706 144.58C556.374 144.851 565.854 137.808 565.854 122.368C565.854 121.826 565.854 121.284 565.854 120.742C556.915 120.742 534.162 121.284 534.162 132.932C534.162 138.62 540.392 144.58 547.706 144.58Z" fill="white"/>
<path d="M455.932 125.618C455.932 138.62 461.62 144.85 470.017 144.85C475.435 144.85 480.04 142.412 485.186 137.266L488.166 178.71C479.498 184.669 471.101 187.378 459.995 187.378C431.824 187.378 404.465 167.604 404.465 132.932V32.1653H455.932V57.8987H478.685V75.5057H455.932V125.618Z" fill="white"/>
<path d="M360.681 122.368L399.146 186.837H350.93L336.844 148.643H334.406L320.321 186.837H272.104L310.569 122.368L272.104 57.8988H320.321L334.406 96.0926H336.844L350.93 57.8988H399.146L360.681 122.368Z" fill="white"/>
<path d="M214.269 186.836V57.8987H215.894C222.666 63.0454 230.792 65.7542 240.002 65.7542C248.941 65.7542 257.338 63.0454 263.839 57.8987H265.464V186.836H214.269ZM240.002 0.201782C253.546 0.201782 264.652 11.3078 264.652 24.8516C264.652 38.6664 253.546 49.7724 240.002 49.7724C226.187 49.7724 215.081 38.6664 215.081 24.8516C215.081 11.3078 226.187 0.201782 240.002 0.201782Z" fill="white"/>
<path d="M0 186.837V57.8988H50.6541L47.4036 79.0273H49.2997C57.9678 63.5872 73.4078 57.3571 85.5973 57.3571C105.371 57.3571 116.748 70.9009 122.166 88.508H124.062C130.563 71.9844 140.856 57.3571 161.985 57.3571C187.718 57.3571 203.429 79.8399 203.429 109.366V186.837H152.233V117.492C152.233 105.844 147.899 99.8848 139.502 99.8848C131.105 99.8848 127.042 105.844 127.042 117.492V186.837H75.8457V117.492C75.8457 105.844 71.7826 99.8848 63.1145 99.8848C54.7173 99.8848 50.6541 105.844 50.6541 117.492V186.837H0Z" fill="white"/>
</svg>
