<svg width="619" height="231" viewBox="0 0 619 231" fill="none" xmlns="http://www.w3.org/2000/svg">
<path d="M520.584 84.1582C539.929 84.1582 549.823 98.1868 549.823 117.531L513.496 127.573C515.711 130.822 519.551 132.151 523.833 132.151C532.25 132.151 542.439 127.573 547.165 124.029L548.937 146.475C539.634 151.791 531.069 155.039 520.289 155.039C500.944 155.039 485.734 138.943 485.734 119.599C485.734 100.254 501.092 84.1582 520.584 84.1582ZM528.558 115.759C528.558 110.148 524.867 107.342 520.584 107.342C515.268 107.342 511.429 112.954 511.429 119.599C511.429 119.894 511.429 120.189 511.429 120.485L528.558 115.759Z" fill="white"/>
<path d="M409.043 177.928V84.4535H436.657L435.623 95.9717H436.657C440.053 87.8499 446.699 84.1582 453.639 84.1582C467.815 84.1582 481.253 97.5961 481.253 119.599C481.253 141.601 467.815 155.039 453.639 155.039C446.699 155.039 440.053 151.495 436.657 143.373H435.623L436.657 177.928H409.043ZM455.559 119.599C455.559 112.954 451.276 107.342 446.108 107.342C440.939 107.342 436.657 112.954 436.657 119.599C436.657 126.392 440.939 131.855 446.108 131.855C451.276 131.855 455.559 126.392 455.559 119.599Z" fill="white"/>
<path d="M338.934 133.775C338.934 122.847 350.009 111.772 375.408 111.772C372.159 108.081 367.581 106.604 363.004 106.604C355.473 106.604 347.498 110.148 343.216 114.135L341.592 92.4277C350.895 87.1116 357.835 84.1582 368.467 84.1582C387.812 84.1582 402.727 100.402 402.727 119.599V154.744H377.475L378.509 143.373H377.475C374.079 151.495 367.877 155.039 360.493 155.039C349.861 155.039 338.934 146.475 338.934 133.775ZM367.581 131.708C372.307 131.855 377.475 128.016 377.475 119.599C377.475 119.303 377.475 119.008 377.475 118.713C372.602 118.713 360.198 119.008 360.198 125.358C360.198 128.459 363.594 131.708 367.581 131.708Z" fill="white"/>
<path d="M317.551 121.371C317.551 128.459 320.652 131.855 325.23 131.855C328.183 131.855 330.694 130.526 333.5 127.72L335.124 150.314C330.398 153.563 325.821 155.039 319.766 155.039C304.409 155.039 289.494 144.259 289.494 125.358V70.4249H317.551V84.4535H329.955V94.052H317.551V121.371Z" fill="white"/>
<path d="M265.626 119.599L286.595 154.744H260.31L252.631 133.923H251.302L243.623 154.744H217.338L238.307 119.599L217.338 84.4535H243.623L251.302 105.275H252.631L260.31 84.4535H286.595L265.626 119.599Z" fill="white"/>
<path d="M185.809 154.744V84.4535H186.695C190.386 87.2592 194.816 88.7359 199.837 88.7359C204.71 88.7359 209.288 87.2592 212.832 84.4535H213.718V154.744H185.809ZM199.837 53C207.221 53 213.275 59.0544 213.275 66.4379C213.275 73.969 207.221 80.0234 199.837 80.0234C192.306 80.0234 186.252 73.969 186.252 66.4379C186.252 59.0544 192.306 53 199.837 53Z" fill="white"/>
<path d="M69 154.744V84.4535H96.6141L94.8421 95.9717H95.8758C100.601 87.5546 109.018 84.1582 115.663 84.1582C126.443 84.1582 132.645 91.5416 135.599 101.14H136.632C140.176 92.1323 145.788 84.1582 157.306 84.1582C171.335 84.1582 179.899 96.4147 179.899 112.511V154.744H151.99V116.941C151.99 110.591 149.627 107.342 145.05 107.342C140.472 107.342 138.257 110.591 138.257 116.941V154.744H110.347V116.941C110.347 110.591 108.132 107.342 103.407 107.342C98.8291 107.342 96.6141 110.591 96.6141 116.941V154.744H69Z" fill="white"/>
<rect x="6" y="6" width="607" height="219" rx="56" stroke="#FFAA13" stroke-width="12"/>
</svg>
