<svg width="481" height="125" viewBox="0 0 481 125" fill="none" xmlns="http://www.w3.org/2000/svg">
<path d="M451.584 31.1582C470.929 31.1582 480.823 45.1868 480.823 64.5314L444.496 74.5729C446.711 77.8216 450.551 79.1506 454.833 79.1506C463.25 79.1506 473.439 74.5729 478.165 71.0288L479.937 93.4745C470.634 98.7906 462.069 102.039 451.289 102.039C431.944 102.039 416.734 85.9434 416.734 66.5988C416.734 47.2541 432.092 31.1582 451.584 31.1582ZM459.558 62.7594C459.558 57.1479 455.867 54.3422 451.584 54.3422C446.268 54.3422 442.429 59.9537 442.429 66.5988C442.429 66.8941 442.429 67.1894 442.429 67.4848L459.558 62.7594Z" fill="white"/>
<path d="M340.043 124.928V31.4535H367.657L366.623 42.9717H367.657C371.053 34.8499 377.699 31.1582 384.639 31.1582C398.815 31.1582 412.253 44.5961 412.253 66.5988C412.253 88.6014 398.815 102.039 384.639 102.039C377.699 102.039 371.053 98.4953 367.657 90.3735H366.623L367.657 124.928H340.043ZM386.559 66.5988C386.559 59.9537 382.276 54.3422 377.108 54.3422C371.939 54.3422 367.657 59.9537 367.657 66.5988C367.657 73.3915 371.939 78.8553 377.108 78.8553C382.276 78.8553 386.559 73.3915 386.559 66.5988Z" fill="white"/>
<path d="M269.934 80.775C269.934 69.8475 281.009 58.7723 306.408 58.7723C303.159 55.0806 298.581 53.6039 294.004 53.6039C286.473 53.6039 278.498 57.1479 274.216 61.135L272.592 39.4277C281.895 34.1116 288.835 31.1582 299.467 31.1582C318.812 31.1582 333.727 47.4018 333.727 66.5988V101.744H308.475L309.509 90.3735H308.475C305.079 98.4953 298.877 102.039 291.493 102.039C280.861 102.039 269.934 93.4745 269.934 80.775ZM298.581 78.7076C303.307 78.8553 308.475 75.0159 308.475 66.5988C308.475 66.3034 308.475 66.0081 308.475 65.7127C303.602 65.7127 291.198 66.0081 291.198 72.3579C291.198 75.4589 294.594 78.7076 298.581 78.7076Z" fill="white"/>
<path d="M248.551 68.3707C248.551 75.4588 251.652 78.8552 256.23 78.8552C259.183 78.8552 261.694 77.5262 264.5 74.7205L266.124 97.3139C261.398 100.563 256.821 102.039 250.766 102.039C235.409 102.039 220.494 91.2594 220.494 72.3578V17.4249H248.551V31.4535H260.955V41.052H248.551V68.3707Z" fill="white"/>
<path d="M196.626 66.5987L217.595 101.744H191.31L183.631 80.9226H182.302L174.623 101.744H148.338L169.307 66.5987L148.338 31.4535H174.623L182.302 52.2748H183.631L191.31 31.4535H217.595L196.626 66.5987Z" fill="white"/>
<path d="M116.809 101.744V31.4535H117.695C121.386 34.2592 125.816 35.7359 130.837 35.7359C135.71 35.7359 140.288 34.2592 143.832 31.4535H144.718V101.744H116.809ZM130.837 0C138.221 0 144.275 6.05443 144.275 13.4379C144.275 20.969 138.221 27.0234 130.837 27.0234C123.306 27.0234 117.252 20.969 117.252 13.4379C117.252 6.05443 123.306 0 130.837 0Z" fill="white"/>
<path d="M0 101.744V31.4535H27.6141L25.8421 42.9717H26.8758C31.6012 34.5546 40.0183 31.1582 46.6634 31.1582C57.4432 31.1582 63.6453 38.5416 66.5987 48.1401H67.6324C71.1765 39.1323 76.7879 31.1582 88.3061 31.1582C102.335 31.1582 110.899 43.4147 110.899 59.5106V101.744H82.99V63.9407C82.99 57.591 80.6273 54.3422 76.0495 54.3422C71.4718 54.3422 69.2568 57.591 69.2568 63.9407V101.744H41.3473V63.9407C41.3473 57.591 39.1323 54.3422 34.4069 54.3422C29.8291 54.3422 27.6141 57.591 27.6141 63.9407V101.744H0Z" fill="white"/>
<rect x="334" y="118.667" width="6.33333" height="334" transform="rotate(90 334 118.667)" fill="#FFAA13"/>
<rect x="334" y="112.333" width="6.33333" height="334" transform="rotate(90 334 112.333)" fill="#FC850A"/>
<rect x="334" y="106" width="6.33333" height="334" transform="rotate(90 334 106)" fill="#FC381F"/>
<rect x="481" y="118.667" width="6.33333" height="107" transform="rotate(90 481 118.667)" fill="#FFAA13"/>
<rect x="481" y="112.333" width="6.33333" height="107" transform="rotate(90 481 112.333)" fill="#FC850A"/>
<rect x="481" y="106" width="6.33333" height="107" transform="rotate(90 481 106)" fill="#FC381F"/>
</svg>
