<svg width="643" height="255" viewBox="0 0 643 255" fill="none" xmlns="http://www.w3.org/2000/svg">
<path d="M532.584 96.1582C551.929 96.1582 561.823 110.187 561.823 129.531L525.496 139.573C527.711 142.822 531.551 144.151 535.833 144.151C544.25 144.151 554.439 139.573 559.165 136.029L560.937 158.474C551.634 163.791 543.069 167.039 532.289 167.039C512.944 167.039 497.734 150.943 497.734 131.599C497.734 112.254 513.092 96.1582 532.584 96.1582ZM540.558 127.759C540.558 122.148 536.867 119.342 532.584 119.342C527.268 119.342 523.429 124.954 523.429 131.599C523.429 131.894 523.429 132.189 523.429 132.485L540.558 127.759Z" fill="black"/>
<path d="M421.043 189.928V96.4535H448.657L447.623 107.972H448.657C452.053 99.8499 458.699 96.1582 465.639 96.1582C479.815 96.1582 493.253 109.596 493.253 131.599C493.253 153.601 479.815 167.039 465.639 167.039C458.699 167.039 452.053 163.495 448.657 155.373H447.623L448.657 189.928H421.043ZM467.559 131.599C467.559 124.954 463.276 119.342 458.108 119.342C452.939 119.342 448.657 124.954 448.657 131.599C448.657 138.392 452.939 143.855 458.108 143.855C463.276 143.855 467.559 138.392 467.559 131.599Z" fill="black"/>
<path d="M350.934 145.775C350.934 134.847 362.009 123.772 387.408 123.772C384.159 120.081 379.581 118.604 375.004 118.604C367.473 118.604 359.498 122.148 355.216 126.135L353.592 104.428C362.895 99.1115 369.835 96.1582 380.467 96.1582C399.812 96.1582 414.727 112.402 414.727 131.599V166.744H389.475L390.509 155.373H389.475C386.079 163.495 379.877 167.039 372.493 167.039C361.861 167.039 350.934 158.474 350.934 145.775ZM379.581 143.708C384.307 143.855 389.475 140.016 389.475 131.599C389.475 131.303 389.475 131.008 389.475 130.713C384.602 130.713 372.198 131.008 372.198 137.358C372.198 140.459 375.594 143.708 379.581 143.708Z" fill="black"/>
<path d="M329.551 133.371C329.551 140.459 332.652 143.855 337.23 143.855C340.183 143.855 342.694 142.526 345.5 139.721L347.124 162.314C342.398 165.563 337.821 167.039 331.766 167.039C316.409 167.039 301.494 156.259 301.494 137.358V82.425H329.551V96.4535H341.955V106.052H329.551V133.371Z" fill="black"/>
<path d="M277.626 131.599L298.595 166.744H272.31L264.631 145.923H263.302L255.623 166.744H229.338L250.307 131.599L229.338 96.4535H255.623L263.302 117.275H264.631L272.31 96.4535H298.595L277.626 131.599Z" fill="black"/>
<path d="M197.809 166.744V96.4535H198.695C202.386 99.2592 206.816 100.736 211.837 100.736C216.71 100.736 221.288 99.2592 224.832 96.4535H225.718V166.744H197.809ZM211.837 65C219.221 65 225.275 71.0544 225.275 78.4379C225.275 85.969 219.221 92.0234 211.837 92.0234C204.306 92.0234 198.252 85.969 198.252 78.4379C198.252 71.0544 204.306 65 211.837 65Z" fill="black"/>
<path d="M81 166.744V96.4535H108.614L106.842 107.972H107.876C112.601 99.5546 121.018 96.1582 127.663 96.1582C138.443 96.1582 144.645 103.542 147.599 113.14H148.632C152.176 104.132 157.788 96.1582 169.306 96.1582C183.335 96.1582 191.899 108.415 191.899 124.511V166.744H163.99V128.941C163.99 122.591 161.627 119.342 157.05 119.342C152.472 119.342 150.257 122.591 150.257 128.941V166.744H122.347V128.941C122.347 122.591 120.132 119.342 115.407 119.342C110.829 119.342 108.614 122.591 108.614 128.941V166.744H81Z" fill="black"/>
<rect x="12" y="12" width="619" height="231" rx="62" stroke="#FFAA13" stroke-width="24"/>
<rect x="30" y="30" width="583" height="195" rx="44" stroke="#FB2925" stroke-width="12"/>
<rect x="18" y="18" width="607" height="219" rx="56" stroke="#FC850A" stroke-width="12"/>
</svg>
